<?xml version="1.0" encoding="UTF-8"?>
<svg id="Layer_1" data-name="Layer 1" xmlns="http://www.w3.org/2000/svg" viewBox="0 0 24 24">
  <path d="M23.36,8.14s-.01-.05-.02-.08c-.1-.3-.21-.58-.34-.86-.01-.02-.02-.05-.03-.07-.97-2.18-2.57-4.02-4.57-5.29-.04-.03-.09-.06-.13-.09-.25-.14-.5-.29-.76-.42-.05-.02-.09-.05-.14-.07-.67-.34-1.38-.61-2.12-.81-.38-.11-.76-.2-1.15-.26-.68-.13-1.38-.19-2.1-.19-.38,0-.75.02-1.12.05-.36.03-.72.08-1.07.15C4.23,1.23,0,6.12,0,12,0,18.63,5.37,24,12,24c5.2,0,9.62-3.3,11.29-7.92.12-.33.22-.66.31-1.01.26-.98.4-2.01.4-3.07,0-1.35-.22-2.65-.64-3.86ZM22.56,15.08c-.1.35-.21.68-.35,1.01-1.62,4.05-5.59,6.91-10.21,6.91C5.93,23,1,18.07,1,12,1,6.77,4.65,2.39,9.54,1.28c.36-.09.72-.15,1.08-.19.45-.06.91-.09,1.38-.09.85,0,1.68.1,2.47.28.4.09.79.2,1.17.33.37.13.74.28,1.09.45.05.02.09.05.14.07.26.13.51.27.76.42.04.02.08.05.12.08,1.9,1.16,3.41,2.88,4.32,4.93.01.02.02.05.03.07.12.29.23.57.33.87.01.03.02.05.02.08.36,1.08.55,2.22.55,3.42,0,1.07-.15,2.1-.44,3.08Z"/>
  <g>
    <path d="M6.73,17.01c0,.19-.04.38-.11.55-.21.56-.75.95-1.39.95-.83,0-1.5-.67-1.5-1.5s.63-1.46,1.43-1.49c.02-.01.05-.01.07-.01.2,0,.4.04.57.12.12.04.23.1.32.18.08.05.15.12.21.19.09.09.17.2.21.31.06.08.09.16.11.25.05.11.07.23.07.36.01.03.01.06.01.09Z"/>
    <path d="M16.21,5.35c0,.43-.18.82-.48,1.1-.24.23-.57.38-.93.39-.03.01-.06.01-.09.01-.13,0-.27-.02-.39-.06-.34-.08-.63-.29-.83-.57-.18-.24-.28-.54-.28-.87,0-.52.27-.98.67-1.25.24-.16.52-.25.83-.25.05,0,.1,0,.15.01.76.08,1.35.72,1.35,1.49Z"/>
    <path d="M20.27,16.99c0,.83-.67,1.5-1.5,1.5-.67,0-1.24-.44-1.42-1.05-.06-.14-.08-.29-.08-.45,0-.2.04-.39.11-.56.09-.24.25-.45.45-.6.25-.22.58-.34.94-.34.83,0,1.5.67,1.5,1.5Z"/>
    <path d="M19.18,16.41s-.03.09-.06.14c-.03.11-.07.22-.12.33-.08.18-.17.36-.27.54h-.84s-.54.02-.54.02l-10.73.12h-.58s-.02-.75-.02-.75h0s-.01-.2-.01-.2v-.04h.64s.82-.02.82-.02h.02l9.89-.12h.65s.37-.01.37-.01h.68s.1-.01.1-.01Z"/>
    <path d="M19.39,10.82l-.66.32-1.09.53-.14.06-.62.3-.29.14-9.1,4.38-.77.37-.52.25-.18-.36h0s-.16-.32-.16-.32h0s-.09-.17-.09-.17l-.02-.04.27-.13h.02s.29-.15.29-.15l.74-.36h.02s.01-.02.01-.02l9.17-4.41.64-.31.27-.13.44-.21.77-.37.67-.33c.12.28.22.59.31.9,0,.02,0,.04.02.06Z"/>
    <path d="M15.27,5.62l-.46.56-.16.2-.33.41-.11.13-.53.65-6.58,8.05h-.01s-.54.68-.54.68h-.01s-.21.27-.21.27l-.15.18-.17-.14-.15-.12-.26-.21h-.02s-.15-.13-.15-.13l-.04-.02.2-.23.21-.27.52-.63h0s6.91-8.47,6.91-8.47l.26-.31.24-.29.15-.18.39-.49.09-.11c.28.12.54.25.8.4.04.02.07.04.11.07Z"/>
    <path d="M8.94,4.67l-.05.21-.15.6-2.42,9.51h0s-.2.81-.2.81h0s-.08.34-.08.34l-.06.23-.21-.05-.17-.04h-.02s-.34-.09-.34-.09h-.01l-.18-.04h-.04s.07-.3.07-.3l.08-.33.2-.8,2.25-8.84.22-.88c.36-.14.73-.25,1.11-.33Z"/>
    <path d="M19.21,16.81l-.21.07-.74.24-.23-.7-.2-.59-1.24-3.66-.32-.96-1.47-4.37-.15-.46-.38-1.12-.39-1.16c.24-.16.52-.25.83-.25.05,0,.1,0,.15.01l.87,2.59,1.45,4.32.32.96,1.27,3.76.31.92.04.14.09.26Z"/>
  </g>
</svg>